{"asset":{"generator":"3D Builder","version":"2.0"},"scene":0,"scenes":[{"nodes":[0]}],"nodes":[{"mesh":0,"matrix":[0.99999994039535522,0,0,0,0,-1.1920928244535389E-7,-0.99999982118606567,0,0,0.99999982118606567,-1.1920928244535389E-7,0,0.00426395982503891,-0.0042936005629599094,-0.0076243015937507153,1]}],"meshes":[{"primitives":[{"attributes":{"POSITION":0,"COLOR_0":1},"mode":4,"indices":2}]}],"accessors":[{"bufferView":0,"byteOffset":0,"count":85208,"componentType":5126,"type":"VEC3","min":[2.8855858545284718E-5,0.00042253849096596241,0.0042936000972986221],"max":[0.11957745999097824,0.07876800000667572,0.027567099779844284]},{"bufferView":1,"byteOffset":0,"count":85208,"componentType":5121,"type":"VEC4","normalized":true},{"bufferView":2,"byteOffset":0,"count":511044,"componentType":5125,"type":"SCALAR"}],"bufferViews":[{"buffer":0,"byteOffset":0,"byteLength":1022496,"byteStride":12,"target":34962},{"buffer":0,"byteOffset":1022496,"byteLength":340832,"byteStride":4,"target":34962},{"buffer":0,"byteOffset":1363328,"byteLength":2044176,"target":34963}],"buffers":[{"byteLength":3407504,"uri":"TN-01-05-24_3DPrint.bin"}]}