{"asset":{"generator":"3D Builder","version":"2.0"},"scene":0,"scenes":[{"nodes":[0]}],"nodes":[{"mesh":0,"matrix":[0.039370074868202209,0,0,0,0,-4.6932786545994531E-9,-0.039370071142911911,0,0,0.039370071142911911,-4.6932786545994531E-9,0,0,0,0,1]}],"meshes":[{"primitives":[{"attributes":{"POSITION":0},"mode":4,"indices":1,"material":0}]}],"materials":[{"name":"Metallic","pbrMetallicRoughness":{"baseColorFactor":[0.91309869289398193,0.87136721611022949,0.87136721611022949,1],"metallicFactor":1,"roughnessFactor":0.25},"alphaMode":"OPAQUE"}],"accessors":[{"bufferView":0,"byteOffset":0,"count":86358,"componentType":5126,"type":"VEC3","min":[0.10903750360012054,0.2043897807598114,0],"max":[3.1455566883087158,2.1943273544311523,0.59110879898071289]},{"bufferView":1,"byteOffset":0,"count":518154,"componentType":5125,"type":"SCALAR"}],"bufferViews":[{"buffer":0,"byteOffset":0,"byteLength":1036296,"byteStride":12,"target":34962},{"buffer":0,"byteOffset":1036296,"byteLength":2072616,"target":34963}],"buffers":[{"byteLength":3108912,"uri":"TN-01-05-24_3DPrint.bin"}]}